<?xml version="1.0" encoding="UTF-8"?>
<svg id="Calque_1" data-name="Calque 1" xmlns="http://www.w3.org/2000/svg" viewBox="0 0 1200 1200">
  <defs>
    <style>
      .cls-1 {
        fill: #f5ebe0;
      }

      .cls-1, .cls-2, .cls-3, .cls-4 {
        stroke-width: 0px;
      }

      .cls-2 {
        fill: #1d1b26;
      }

      .cls-3 {
        fill: #25b1d0;
      }

      .cls-4 {
        fill: #e84956;
      }
    </style>
  </defs>
  <g>
    <g>
      <path class="cls-2" d="m602.93,225.77h93.76l-272.48,775.17h-93.34L602.93,225.77Z"/>
      <path class="cls-2" d="m601.95,224.8h93.76l-272.48,775.17h-93.34L601.95,224.8Z"/>
      <path class="cls-2" d="m600.97,223.82h93.76l-272.48,775.17h-93.34L600.97,223.82Z"/>
      <path class="cls-2" d="m599.99,222.84h93.76l-272.48,775.17h-93.34L599.99,222.84Z"/>
      <path class="cls-2" d="m599.02,221.86h93.76l-272.48,775.17h-93.34L599.02,221.86Z"/>
      <path class="cls-2" d="m598.04,220.89h93.76l-272.48,775.17h-93.34L598.04,220.89Z"/>
      <path class="cls-2" d="m597.06,219.91h93.76l-272.48,775.17h-93.34L597.06,219.91Z"/>
      <path class="cls-2" d="m596.09,218.93h93.76l-272.48,775.17h-93.34L596.09,218.93Z"/>
      <path class="cls-2" d="m595.11,217.95h93.76l-272.48,775.17h-93.34L595.11,217.95Z"/>
      <path class="cls-2" d="m594.13,216.98h93.76l-272.48,775.17h-93.34L594.13,216.98Z"/>
      <path class="cls-2" d="m593.15,216h93.76l-272.48,775.17h-93.34L593.15,216Z"/>
      <path class="cls-2" d="m592.18,215.02h93.76l-272.48,775.17h-93.34L592.18,215.02Z"/>
      <path class="cls-2" d="m591.2,214.05h93.76l-272.48,775.17h-93.34L591.2,214.05Z"/>
      <path class="cls-2" d="m590.22,213.07h93.76l-272.48,775.17h-93.34L590.22,213.07Z"/>
      <path class="cls-2" d="m589.24,212.09h93.76l-272.48,775.17h-93.34L589.24,212.09Z"/>
      <path class="cls-2" d="m588.27,211.11h93.76l-272.48,775.17h-93.34L588.27,211.11Z"/>
      <path class="cls-2" d="m587.29,210.14h93.76l-272.48,775.17h-93.34L587.29,210.14Z"/>
      <path class="cls-2" d="m586.31,209.16h93.76l-272.48,775.17h-93.34L586.31,209.16Z"/>
      <path class="cls-2" d="m585.34,208.18h93.76l-272.48,775.17h-93.34L585.34,208.18Z"/>
      <path class="cls-2" d="m584.36,207.2h93.76l-272.48,775.17h-93.34L584.36,207.2Z"/>
      <path class="cls-2" d="m583.38,206.23h93.76l-272.48,775.17h-93.34L583.38,206.23Z"/>
      <path class="cls-2" d="m582.4,205.25h93.76l-272.48,775.17h-93.34L582.4,205.25Z"/>
      <path class="cls-2" d="m581.43,204.27h93.76l-272.48,775.17h-93.34L581.43,204.27Z"/>
      <path class="cls-2" d="m580.45,203.3h93.76l-272.48,775.17h-93.34L580.45,203.3Z"/>
      <path class="cls-2" d="m579.47,202.32h93.76l-272.48,775.17h-93.34L579.47,202.32Z"/>
      <path class="cls-2" d="m578.49,201.34h93.76l-272.48,775.17h-93.34L578.49,201.34Z"/>
      <path class="cls-2" d="m577.52,200.36h93.76l-272.48,775.17h-93.34L577.52,200.36Z"/>
      <path class="cls-2" d="m576.54,199.39h93.76l-272.48,775.17h-93.34L576.54,199.39Z"/>
      <path class="cls-2" d="m575.56,198.41h93.76l-272.48,775.17h-93.34L575.56,198.41Z"/>
      <path class="cls-2" d="m574.58,197.43h93.76l-272.48,775.17h-93.34L574.58,197.43Z"/>
      <path class="cls-2" d="m573.61,196.45h93.76l-272.48,775.17h-93.34L573.61,196.45Z"/>
      <path class="cls-2" d="m572.63,195.48h93.76l-272.48,775.17h-93.34L572.63,195.48Z"/>
      <path class="cls-2" d="m571.65,194.5h93.76l-272.48,775.17h-93.34L571.65,194.5Z"/>
      <path class="cls-2" d="m570.68,193.52h93.76l-272.48,775.17h-93.34L570.68,193.52Z"/>
      <path class="cls-2" d="m569.7,192.54h93.76l-272.48,775.17h-93.34L569.7,192.54Z"/>
      <path class="cls-2" d="m568.72,191.57h93.76l-272.48,775.17h-93.34L568.72,191.57Z"/>
      <path class="cls-2" d="m567.74,190.59h93.76l-272.48,775.17h-93.34L567.74,190.59Z"/>
      <path class="cls-2" d="m566.77,189.61h93.76l-272.48,775.17h-93.34L566.77,189.61Z"/>
      <path class="cls-2" d="m565.79,188.64h93.76l-272.48,775.17h-93.34L565.79,188.64Z"/>
      <path class="cls-2" d="m564.81,187.66h93.76l-272.48,775.17h-93.34L564.81,187.66Z"/>
      <path class="cls-2" d="m563.83,186.68h93.76l-272.48,775.17h-93.34L563.83,186.68Z"/>
      <path class="cls-2" d="m562.86,185.7h93.76l-272.48,775.17h-93.34L562.86,185.7Z"/>
      <path class="cls-2" d="m561.88,184.73h93.76l-272.48,775.17h-93.34L561.88,184.73Z"/>
      <path class="cls-2" d="m560.9,183.75h93.76l-272.48,775.17h-93.34L560.9,183.75Z"/>
      <path class="cls-2" d="m559.93,182.77h93.76l-272.48,775.17h-93.34L559.93,182.77Z"/>
      <path class="cls-2" d="m558.95,181.79h93.76l-272.48,775.17h-93.34L558.95,181.79Z"/>
      <path class="cls-2" d="m557.97,180.82h93.76l-272.48,775.17h-93.34L557.97,180.82Z"/>
      <path class="cls-2" d="m556.99,179.84h93.76l-272.48,775.17h-93.34L556.99,179.84Z"/>
      <path class="cls-2" d="m556.02,178.86h93.76l-272.48,775.17h-93.34L556.02,178.86Z"/>
    </g>
    <g>
      <path class="cls-4" d="m591.2,214.05h93.76l-272.48,775.17h-93.34L591.2,214.05Z"/>
      <path class="cls-4" d="m590.22,213.07h93.76l-272.48,775.17h-93.34L590.22,213.07Z"/>
      <path class="cls-4" d="m589.24,212.09h93.76l-272.48,775.17h-93.34L589.24,212.09Z"/>
      <path class="cls-4" d="m588.27,211.11h93.76l-272.48,775.17h-93.34L588.27,211.11Z"/>
      <path class="cls-4" d="m587.29,210.14h93.76l-272.48,775.17h-93.34L587.29,210.14Z"/>
      <path class="cls-4" d="m586.31,209.16h93.76l-272.48,775.17h-93.34L586.31,209.16Z"/>
      <path class="cls-4" d="m585.34,208.18h93.76l-272.48,775.17h-93.34L585.34,208.18Z"/>
      <path class="cls-4" d="m584.36,207.2h93.76l-272.48,775.17h-93.34L584.36,207.2Z"/>
      <path class="cls-4" d="m583.38,206.23h93.76l-272.48,775.17h-93.34L583.38,206.23Z"/>
      <path class="cls-4" d="m582.4,205.25h93.76l-272.48,775.17h-93.34L582.4,205.25Z"/>
      <path class="cls-4" d="m581.43,204.27h93.76l-272.48,775.17h-93.34L581.43,204.27Z"/>
      <path class="cls-4" d="m580.45,203.3h93.76l-272.48,775.17h-93.34L580.45,203.3Z"/>
      <path class="cls-4" d="m579.47,202.32h93.76l-272.48,775.17h-93.34L579.47,202.32Z"/>
      <path class="cls-4" d="m578.49,201.34h93.76l-272.48,775.17h-93.34L578.49,201.34Z"/>
      <path class="cls-4" d="m577.52,200.36h93.76l-272.48,775.17h-93.34L577.52,200.36Z"/>
      <path class="cls-4" d="m576.54,199.39h93.76l-272.48,775.17h-93.34L576.54,199.39Z"/>
      <path class="cls-4" d="m575.56,198.41h93.76l-272.48,775.17h-93.34L575.56,198.41Z"/>
      <path class="cls-4" d="m574.58,197.43h93.76l-272.48,775.17h-93.34L574.58,197.43Z"/>
      <path class="cls-4" d="m573.61,196.45h93.76l-272.48,775.17h-93.34L573.61,196.45Z"/>
      <path class="cls-4" d="m572.63,195.48h93.76l-272.48,775.17h-93.34L572.63,195.48Z"/>
      <path class="cls-4" d="m571.65,194.5h93.76l-272.48,775.17h-93.34L571.65,194.5Z"/>
      <path class="cls-4" d="m570.68,193.52h93.76l-272.48,775.17h-93.34L570.68,193.52Z"/>
      <path class="cls-4" d="m569.7,192.54h93.76l-272.48,775.17h-93.34L569.7,192.54Z"/>
      <path class="cls-4" d="m568.72,191.57h93.76l-272.48,775.17h-93.34L568.72,191.57Z"/>
      <path class="cls-4" d="m567.74,190.59h93.76l-272.48,775.17h-93.34L567.74,190.59Z"/>
      <path class="cls-4" d="m566.77,189.61h93.76l-272.48,775.17h-93.34L566.77,189.61Z"/>
      <path class="cls-4" d="m565.79,188.64h93.76l-272.48,775.17h-93.34L565.79,188.64Z"/>
      <path class="cls-4" d="m564.81,187.66h93.76l-272.48,775.17h-93.34L564.81,187.66Z"/>
      <path class="cls-4" d="m563.83,186.68h93.76l-272.48,775.17h-93.34L563.83,186.68Z"/>
      <path class="cls-4" d="m562.86,185.7h93.76l-272.48,775.17h-93.34L562.86,185.7Z"/>
      <path class="cls-4" d="m561.88,184.73h93.76l-272.48,775.17h-93.34L561.88,184.73Z"/>
      <path class="cls-4" d="m560.9,183.75h93.76l-272.48,775.17h-93.34L560.9,183.75Z"/>
      <path class="cls-4" d="m559.93,182.77h93.76l-272.48,775.17h-93.34L559.93,182.77Z"/>
      <path class="cls-4" d="m558.95,181.79h93.76l-272.48,775.17h-93.34L558.95,181.79Z"/>
      <path class="cls-4" d="m557.97,180.82h93.76l-272.48,775.17h-93.34L557.97,180.82Z"/>
      <path class="cls-4" d="m556.99,179.84h93.76l-272.48,775.17h-93.34L556.99,179.84Z"/>
      <path class="cls-4" d="m556.02,178.86h93.76l-272.48,775.17h-93.34L556.02,178.86Z"/>
    </g>
    <g>
      <path class="cls-3" d="m579.47,202.32h93.76l-272.48,775.17h-93.34L579.47,202.32Z"/>
      <path class="cls-3" d="m578.49,201.34h93.76l-272.48,775.17h-93.34L578.49,201.34Z"/>
      <path class="cls-3" d="m577.52,200.36h93.76l-272.48,775.17h-93.34L577.52,200.36Z"/>
      <path class="cls-3" d="m576.54,199.39h93.76l-272.48,775.17h-93.34L576.54,199.39Z"/>
      <path class="cls-3" d="m575.56,198.41h93.76l-272.48,775.17h-93.34L575.56,198.41Z"/>
      <path class="cls-3" d="m574.58,197.43h93.76l-272.48,775.17h-93.34L574.58,197.43Z"/>
      <path class="cls-3" d="m573.61,196.45h93.76l-272.48,775.17h-93.34L573.61,196.45Z"/>
      <path class="cls-3" d="m572.63,195.48h93.76l-272.48,775.17h-93.34L572.63,195.48Z"/>
      <path class="cls-3" d="m571.65,194.5h93.76l-272.48,775.17h-93.34L571.65,194.5Z"/>
      <path class="cls-3" d="m570.68,193.52h93.76l-272.48,775.17h-93.34L570.68,193.52Z"/>
      <path class="cls-3" d="m569.7,192.54h93.76l-272.48,775.17h-93.34L569.7,192.54Z"/>
      <path class="cls-3" d="m568.72,191.57h93.76l-272.48,775.17h-93.34L568.72,191.57Z"/>
      <path class="cls-3" d="m567.74,190.59h93.76l-272.48,775.17h-93.34L567.74,190.59Z"/>
      <path class="cls-3" d="m566.77,189.61h93.76l-272.48,775.17h-93.34L566.77,189.61Z"/>
      <path class="cls-3" d="m565.79,188.64h93.76l-272.48,775.17h-93.34L565.79,188.64Z"/>
      <path class="cls-3" d="m564.81,187.66h93.76l-272.48,775.17h-93.34L564.81,187.66Z"/>
      <path class="cls-3" d="m563.83,186.68h93.76l-272.48,775.17h-93.34L563.83,186.68Z"/>
      <path class="cls-3" d="m562.86,185.7h93.76l-272.48,775.17h-93.34L562.86,185.7Z"/>
      <path class="cls-3" d="m561.88,184.73h93.76l-272.48,775.17h-93.34L561.88,184.73Z"/>
      <path class="cls-3" d="m560.9,183.75h93.76l-272.48,775.17h-93.34L560.9,183.75Z"/>
      <path class="cls-3" d="m559.93,182.77h93.76l-272.48,775.17h-93.34L559.93,182.77Z"/>
      <path class="cls-3" d="m558.95,181.79h93.76l-272.48,775.17h-93.34L558.95,181.79Z"/>
      <path class="cls-3" d="m557.97,180.82h93.76l-272.48,775.17h-93.34L557.97,180.82Z"/>
      <path class="cls-3" d="m556.99,179.84h93.76l-272.48,775.17h-93.34L556.99,179.84Z"/>
      <path class="cls-3" d="m556.02,178.86h93.76l-272.48,775.17h-93.34L556.02,178.86Z"/>
    </g>
    <g>
      <path class="cls-1" d="m567.74,190.59h93.76l-272.48,775.17h-93.34L567.74,190.59Z"/>
      <path class="cls-1" d="m566.77,189.61h93.76l-272.48,775.17h-93.34L566.77,189.61Z"/>
      <path class="cls-1" d="m565.79,188.64h93.76l-272.48,775.17h-93.34L565.79,188.64Z"/>
      <path class="cls-1" d="m564.81,187.66h93.76l-272.48,775.17h-93.34L564.81,187.66Z"/>
      <path class="cls-1" d="m563.83,186.68h93.76l-272.48,775.17h-93.34L563.83,186.68Z"/>
      <path class="cls-1" d="m562.86,185.7h93.76l-272.48,775.17h-93.34L562.86,185.7Z"/>
      <path class="cls-1" d="m561.88,184.73h93.76l-272.48,775.17h-93.34L561.88,184.73Z"/>
      <path class="cls-1" d="m560.9,183.75h93.76l-272.48,775.17h-93.34L560.9,183.75Z"/>
      <path class="cls-1" d="m559.93,182.77h93.76l-272.48,775.17h-93.34L559.93,182.77Z"/>
      <path class="cls-1" d="m558.95,181.79h93.76l-272.48,775.17h-93.34L558.95,181.79Z"/>
      <path class="cls-1" d="m557.97,180.82h93.76l-272.48,775.17h-93.34L557.97,180.82Z"/>
      <path class="cls-1" d="m556.99,179.84h93.76l-272.48,775.17h-93.34L556.99,179.84Z"/>
      <path class="cls-1" d="m556.02,178.86h93.76l-272.48,775.17h-93.34L556.02,178.86Z"/>
    </g>
    <path class="cls-2" d="m556.02,178.86h93.76l-272.48,775.17h-93.34L556.02,178.86Z"/>
  </g>
  <g>
    <g>
      <path class="cls-2" d="m696.68,470.67l431.05,233.92v5.34s-431.05,232.97-431.05,232.97v-84.57s285.88-150.91,285.88-150.91l-285.88-151.54v-85.2Z"/>
      <path class="cls-2" d="m695.71,469.69l431.05,233.92v5.34s-431.05,232.97-431.05,232.97v-84.57s285.88-150.91,285.88-150.91l-285.88-151.54v-85.2Z"/>
      <path class="cls-2" d="m694.73,468.72l431.05,233.92v5.34s-431.05,232.97-431.05,232.97v-84.57s285.88-150.91,285.88-150.91l-285.88-151.54v-85.2Z"/>
      <path class="cls-2" d="m693.75,467.74l431.05,233.92v5.34s-431.05,232.97-431.05,232.97v-84.57s285.88-150.91,285.88-150.91l-285.88-151.54v-85.2Z"/>
      <path class="cls-2" d="m692.77,466.76l431.05,233.92v5.34s-431.05,232.97-431.05,232.97v-84.57s285.88-150.91,285.88-150.91l-285.88-151.54v-85.2Z"/>
      <path class="cls-2" d="m691.8,465.79l431.05,233.92v5.34s-431.05,232.97-431.05,232.97v-84.57s285.88-150.91,285.88-150.91l-285.88-151.54v-85.2Z"/>
      <path class="cls-2" d="m690.82,464.81l431.05,233.92v5.34s-431.05,232.97-431.05,232.97v-84.57s285.88-150.91,285.88-150.91l-285.88-151.54v-85.2Z"/>
      <path class="cls-2" d="m689.84,463.83l431.05,233.92v5.34s-431.05,232.97-431.05,232.97v-84.57s285.88-150.91,285.88-150.91l-285.88-151.54v-85.2Z"/>
      <path class="cls-2" d="m688.87,462.85l431.05,233.92v5.34s-431.05,232.97-431.05,232.97v-84.57s285.88-150.91,285.88-150.91l-285.88-151.54v-85.2Z"/>
      <path class="cls-2" d="m687.89,461.88l431.05,233.92v5.34s-431.05,232.97-431.05,232.97v-84.57s285.88-150.91,285.88-150.91l-285.88-151.54v-85.2Z"/>
      <path class="cls-2" d="m686.91,460.9l431.05,233.92v5.34s-431.05,232.97-431.05,232.97v-84.57s285.88-150.91,285.88-150.91l-285.88-151.54v-85.2Z"/>
      <path class="cls-2" d="m685.93,459.92l431.05,233.92v5.34s-431.05,232.97-431.05,232.97v-84.57s285.88-150.91,285.88-150.91l-285.88-151.54v-85.2Z"/>
      <path class="cls-2" d="m684.96,458.94l431.05,233.92v5.34s-431.05,232.97-431.05,232.97v-84.57s285.88-150.91,285.88-150.91l-285.88-151.54v-85.2Z"/>
      <path class="cls-2" d="m683.98,457.97l431.05,233.92v5.34s-431.05,232.97-431.05,232.97v-84.57s285.88-150.91,285.88-150.91l-285.88-151.54v-85.2Z"/>
      <path class="cls-2" d="m683,456.99l431.05,233.92v5.34s-431.05,232.97-431.05,232.97v-84.57s285.88-150.91,285.88-150.91l-285.88-151.54v-85.2Z"/>
      <path class="cls-2" d="m682.02,456.01l431.05,233.92v5.34s-431.05,232.97-431.05,232.97v-84.57s285.88-150.91,285.88-150.91l-285.88-151.54v-85.2Z"/>
      <path class="cls-2" d="m681.05,455.03l431.05,233.92v5.34s-431.05,232.97-431.05,232.97v-84.57s285.88-150.91,285.88-150.91l-285.88-151.54v-85.2Z"/>
      <path class="cls-2" d="m680.07,454.06l431.05,233.92v5.34s-431.05,232.97-431.05,232.97v-84.57s285.88-150.91,285.88-150.91l-285.88-151.54v-85.2Z"/>
      <path class="cls-2" d="m679.09,453.08l431.05,233.92v5.34s-431.05,232.97-431.05,232.97v-84.57s285.88-150.91,285.88-150.91l-285.88-151.54v-85.2Z"/>
      <path class="cls-2" d="m678.12,452.1l431.05,233.92v5.34s-431.05,232.97-431.05,232.97v-84.57s285.88-150.91,285.88-150.91l-285.88-151.54v-85.2Z"/>
      <path class="cls-2" d="m677.14,451.13l431.05,233.92v5.34s-431.05,232.97-431.05,232.97v-84.57s285.88-150.91,285.88-150.91l-285.88-151.54v-85.2Z"/>
      <path class="cls-2" d="m676.16,450.15l431.05,233.92v5.34s-431.05,232.97-431.05,232.97v-84.57s285.88-150.91,285.88-150.91l-285.88-151.54v-85.2Z"/>
      <path class="cls-2" d="m675.18,449.17l431.05,233.92v5.34s-431.05,232.97-431.05,232.97v-84.57s285.88-150.91,285.88-150.91l-285.88-151.54v-85.2Z"/>
      <path class="cls-2" d="m674.21,448.19l431.05,233.92v5.34s-431.05,232.97-431.05,232.97v-84.57s285.88-150.91,285.88-150.91l-285.88-151.54v-85.2Z"/>
      <path class="cls-2" d="m673.23,447.22l431.05,233.92v5.34s-431.05,232.97-431.05,232.97v-84.57s285.88-150.91,285.88-150.91l-285.88-151.54v-85.2Z"/>
      <path class="cls-2" d="m672.25,446.24l431.05,233.92v5.34s-431.05,232.97-431.05,232.97v-84.57s285.88-150.91,285.88-150.91l-285.88-151.54v-85.2Z"/>
      <path class="cls-2" d="m671.27,445.26l431.05,233.92v5.34s-431.05,232.97-431.05,232.97v-84.57s285.88-150.91,285.88-150.91l-285.88-151.54v-85.2Z"/>
      <path class="cls-2" d="m670.3,444.28l431.05,233.92v5.34s-431.05,232.97-431.05,232.97v-84.57s285.88-150.91,285.88-150.91l-285.88-151.54v-85.2Z"/>
      <path class="cls-2" d="m669.32,443.31l431.05,233.92v5.34s-431.05,232.97-431.05,232.97v-84.57s285.88-150.91,285.88-150.91l-285.88-151.54v-85.2Z"/>
      <path class="cls-2" d="m668.34,442.33l431.05,233.92v5.34s-431.05,232.97-431.05,232.97v-84.57s285.88-150.91,285.88-150.91l-285.88-151.54v-85.2Z"/>
      <path class="cls-2" d="m667.36,441.35l431.05,233.92v5.34s-431.05,232.97-431.05,232.97v-84.57s285.88-150.91,285.88-150.91l-285.88-151.54v-85.2Z"/>
      <path class="cls-2" d="m666.39,440.38l431.05,233.92v5.34s-431.05,232.97-431.05,232.97v-84.57s285.88-150.91,285.88-150.91l-285.88-151.54v-85.2Z"/>
      <path class="cls-2" d="m665.41,439.4l431.05,233.92v5.34s-431.05,232.97-431.05,232.97v-84.57s285.88-150.91,285.88-150.91l-285.88-151.54v-85.2Z"/>
      <path class="cls-2" d="m664.43,438.42l431.05,233.92v5.34s-431.05,232.97-431.05,232.97v-84.57s285.88-150.91,285.88-150.91l-285.88-151.54v-85.2Z"/>
      <path class="cls-2" d="m663.46,437.44l431.05,233.92v5.34s-431.05,232.97-431.05,232.97v-84.57s285.88-150.91,285.88-150.91l-285.88-151.54v-85.2Z"/>
      <path class="cls-2" d="m662.48,436.47l431.05,233.92v5.34s-431.05,232.97-431.05,232.97v-84.57s285.88-150.91,285.88-150.91l-285.88-151.54v-85.2Z"/>
      <path class="cls-2" d="m661.5,435.49l431.05,233.92v5.34s-431.05,232.97-431.05,232.97v-84.57s285.88-150.91,285.88-150.91l-285.88-151.54v-85.2Z"/>
      <path class="cls-2" d="m660.52,434.51l431.05,233.92v5.34s-431.05,232.97-431.05,232.97v-84.57s285.88-150.91,285.88-150.91l-285.88-151.54v-85.2Z"/>
      <path class="cls-2" d="m659.55,433.53l431.05,233.92v5.34s-431.05,232.97-431.05,232.97v-84.57s285.88-150.91,285.88-150.91l-285.88-151.54v-85.2Z"/>
      <path class="cls-2" d="m658.57,432.56l431.05,233.92v5.34s-431.05,232.97-431.05,232.97v-84.57s285.88-150.91,285.88-150.91l-285.88-151.54v-85.2Z"/>
      <path class="cls-2" d="m657.59,431.58l431.05,233.92v5.34s-431.05,232.97-431.05,232.97v-84.57s285.88-150.91,285.88-150.91l-285.88-151.54v-85.2Z"/>
      <path class="cls-2" d="m656.61,430.6l431.05,233.92v5.34s-431.05,232.97-431.05,232.97v-84.57s285.88-150.91,285.88-150.91l-285.88-151.54v-85.2Z"/>
      <path class="cls-2" d="m655.64,429.62l431.05,233.92v5.34s-431.05,232.97-431.05,232.97v-84.57s285.88-150.91,285.88-150.91l-285.88-151.54v-85.2Z"/>
      <path class="cls-2" d="m654.66,428.65l431.05,233.92v5.34s-431.05,232.97-431.05,232.97v-84.57s285.88-150.91,285.88-150.91l-285.88-151.54v-85.2Z"/>
      <path class="cls-2" d="m653.68,427.67l431.05,233.92v5.34s-431.05,232.97-431.05,232.97v-84.57s285.88-150.91,285.88-150.91l-285.88-151.54v-85.2Z"/>
      <path class="cls-2" d="m652.7,426.69l431.05,233.92v5.34s-431.05,232.97-431.05,232.97v-84.57s285.88-150.91,285.88-150.91l-285.88-151.54v-85.2Z"/>
      <path class="cls-2" d="m651.73,425.72l431.05,233.92v5.34s-431.05,232.97-431.05,232.97v-84.57s285.88-150.91,285.88-150.91l-285.88-151.54v-85.2Z"/>
      <path class="cls-2" d="m650.75,424.74l431.05,233.92v5.34s-431.05,232.97-431.05,232.97v-84.57s285.88-150.91,285.88-150.91l-285.88-151.54v-85.2Z"/>
      <path class="cls-2" d="m649.77,423.76l431.05,233.92v5.34s-431.05,232.97-431.05,232.97v-84.57s285.88-150.91,285.88-150.91l-285.88-151.54v-85.2Z"/>
    </g>
    <g>
      <path class="cls-4" d="m684.96,458.94l431.05,233.92v5.34s-431.05,232.97-431.05,232.97v-84.57s285.88-150.91,285.88-150.91l-285.88-151.54v-85.2Z"/>
      <path class="cls-4" d="m683.98,457.97l431.05,233.92v5.34s-431.05,232.97-431.05,232.97v-84.57s285.88-150.91,285.88-150.91l-285.88-151.54v-85.2Z"/>
      <path class="cls-4" d="m683,456.99l431.05,233.92v5.34s-431.05,232.97-431.05,232.97v-84.57s285.88-150.91,285.88-150.91l-285.88-151.54v-85.2Z"/>
      <path class="cls-4" d="m682.02,456.01l431.05,233.92v5.34s-431.05,232.97-431.05,232.97v-84.57s285.88-150.91,285.88-150.91l-285.88-151.54v-85.2Z"/>
      <path class="cls-4" d="m681.05,455.03l431.05,233.92v5.34s-431.05,232.97-431.05,232.97v-84.57s285.88-150.91,285.88-150.91l-285.88-151.54v-85.2Z"/>
      <path class="cls-4" d="m680.07,454.06l431.05,233.92v5.34s-431.05,232.97-431.05,232.97v-84.57s285.88-150.91,285.88-150.91l-285.88-151.54v-85.2Z"/>
      <path class="cls-4" d="m679.09,453.08l431.05,233.92v5.34s-431.05,232.97-431.05,232.97v-84.57s285.88-150.91,285.88-150.91l-285.88-151.54v-85.2Z"/>
      <path class="cls-4" d="m678.12,452.1l431.05,233.92v5.34s-431.05,232.97-431.05,232.97v-84.57s285.88-150.91,285.88-150.91l-285.88-151.54v-85.2Z"/>
      <path class="cls-4" d="m677.14,451.13l431.05,233.92v5.34s-431.05,232.97-431.05,232.97v-84.57s285.88-150.91,285.88-150.91l-285.88-151.54v-85.2Z"/>
      <path class="cls-4" d="m676.16,450.15l431.05,233.92v5.34s-431.05,232.97-431.05,232.97v-84.57s285.88-150.91,285.88-150.91l-285.88-151.54v-85.2Z"/>
      <path class="cls-4" d="m675.18,449.17l431.05,233.92v5.34s-431.05,232.97-431.05,232.97v-84.57s285.88-150.91,285.88-150.91l-285.88-151.54v-85.2Z"/>
      <path class="cls-4" d="m674.21,448.19l431.05,233.92v5.34s-431.05,232.97-431.05,232.97v-84.57s285.88-150.91,285.88-150.91l-285.88-151.54v-85.2Z"/>
      <path class="cls-4" d="m673.23,447.22l431.05,233.92v5.34s-431.05,232.97-431.05,232.97v-84.57s285.88-150.91,285.88-150.91l-285.88-151.54v-85.2Z"/>
      <path class="cls-4" d="m672.25,446.24l431.05,233.92v5.34s-431.05,232.97-431.05,232.97v-84.57s285.88-150.91,285.88-150.91l-285.88-151.54v-85.2Z"/>
      <path class="cls-4" d="m671.27,445.26l431.05,233.92v5.34s-431.05,232.97-431.05,232.97v-84.57s285.88-150.91,285.88-150.91l-285.88-151.54v-85.2Z"/>
      <path class="cls-4" d="m670.3,444.28l431.05,233.92v5.34s-431.05,232.97-431.05,232.97v-84.57s285.88-150.91,285.88-150.91l-285.88-151.54v-85.2Z"/>
      <path class="cls-4" d="m669.32,443.31l431.05,233.92v5.34s-431.05,232.97-431.05,232.97v-84.57s285.88-150.91,285.88-150.91l-285.88-151.54v-85.2Z"/>
      <path class="cls-4" d="m668.34,442.33l431.05,233.92v5.34s-431.05,232.97-431.05,232.97v-84.57s285.88-150.91,285.88-150.91l-285.88-151.54v-85.2Z"/>
      <path class="cls-4" d="m667.36,441.35l431.05,233.92v5.34s-431.05,232.97-431.05,232.97v-84.57s285.88-150.91,285.88-150.91l-285.88-151.54v-85.2Z"/>
      <path class="cls-4" d="m666.39,440.38l431.05,233.92v5.34s-431.05,232.97-431.05,232.97v-84.57s285.88-150.91,285.88-150.91l-285.88-151.54v-85.2Z"/>
      <path class="cls-4" d="m665.41,439.4l431.05,233.92v5.34s-431.05,232.97-431.05,232.97v-84.57s285.88-150.91,285.88-150.91l-285.88-151.54v-85.2Z"/>
      <path class="cls-4" d="m664.43,438.42l431.05,233.92v5.34s-431.05,232.97-431.05,232.97v-84.57s285.88-150.91,285.88-150.91l-285.88-151.54v-85.2Z"/>
      <path class="cls-4" d="m663.46,437.44l431.05,233.92v5.34s-431.05,232.97-431.05,232.97v-84.57s285.88-150.91,285.88-150.91l-285.88-151.54v-85.2Z"/>
      <path class="cls-4" d="m662.48,436.47l431.05,233.92v5.34s-431.05,232.97-431.05,232.97v-84.57s285.88-150.91,285.88-150.91l-285.88-151.54v-85.2Z"/>
      <path class="cls-4" d="m661.5,435.49l431.05,233.92v5.34s-431.05,232.97-431.05,232.97v-84.57s285.88-150.91,285.88-150.91l-285.88-151.54v-85.2Z"/>
      <path class="cls-4" d="m660.52,434.51l431.05,233.92v5.34s-431.05,232.97-431.05,232.97v-84.57s285.88-150.91,285.88-150.91l-285.88-151.54v-85.2Z"/>
      <path class="cls-4" d="m659.55,433.53l431.05,233.92v5.34s-431.05,232.97-431.05,232.97v-84.57s285.88-150.91,285.88-150.91l-285.88-151.54v-85.2Z"/>
      <path class="cls-4" d="m658.57,432.56l431.05,233.92v5.34s-431.05,232.97-431.05,232.97v-84.57s285.88-150.91,285.88-150.91l-285.88-151.54v-85.2Z"/>
      <path class="cls-4" d="m657.59,431.58l431.05,233.92v5.34s-431.05,232.97-431.05,232.97v-84.57s285.88-150.91,285.88-150.91l-285.88-151.54v-85.2Z"/>
      <path class="cls-4" d="m656.61,430.6l431.05,233.92v5.34s-431.05,232.97-431.05,232.97v-84.57s285.88-150.91,285.88-150.91l-285.88-151.54v-85.2Z"/>
      <path class="cls-4" d="m655.64,429.62l431.05,233.92v5.34s-431.05,232.97-431.05,232.97v-84.57s285.88-150.91,285.88-150.91l-285.88-151.54v-85.2Z"/>
      <path class="cls-4" d="m654.66,428.65l431.05,233.92v5.34s-431.05,232.97-431.05,232.97v-84.57s285.88-150.91,285.88-150.91l-285.88-151.54v-85.2Z"/>
      <path class="cls-4" d="m653.68,427.67l431.05,233.92v5.34s-431.05,232.97-431.05,232.97v-84.57s285.88-150.91,285.88-150.91l-285.88-151.54v-85.2Z"/>
      <path class="cls-4" d="m652.7,426.69l431.05,233.92v5.34s-431.05,232.97-431.05,232.97v-84.57s285.88-150.91,285.88-150.91l-285.88-151.54v-85.2Z"/>
      <path class="cls-4" d="m651.73,425.72l431.05,233.92v5.34s-431.05,232.97-431.05,232.97v-84.57s285.88-150.91,285.88-150.91l-285.88-151.54v-85.2Z"/>
      <path class="cls-4" d="m650.75,424.74l431.05,233.92v5.34s-431.05,232.97-431.05,232.97v-84.57s285.88-150.91,285.88-150.91l-285.88-151.54v-85.2Z"/>
      <path class="cls-4" d="m649.77,423.76l431.05,233.92v5.34s-431.05,232.97-431.05,232.97v-84.57s285.88-150.91,285.88-150.91l-285.88-151.54v-85.2Z"/>
    </g>
    <g>
      <path class="cls-3" d="m673.23,447.22l431.05,233.92v5.34s-431.05,232.97-431.05,232.97v-84.57s285.88-150.91,285.88-150.91l-285.88-151.54v-85.2Z"/>
      <path class="cls-3" d="m672.25,446.24l431.05,233.92v5.34s-431.05,232.97-431.05,232.97v-84.57s285.88-150.91,285.88-150.91l-285.88-151.54v-85.2Z"/>
      <path class="cls-3" d="m671.27,445.26l431.05,233.92v5.34s-431.05,232.97-431.05,232.97v-84.57s285.88-150.91,285.88-150.91l-285.88-151.54v-85.2Z"/>
      <path class="cls-3" d="m670.3,444.28l431.05,233.92v5.34s-431.05,232.97-431.05,232.97v-84.57s285.88-150.91,285.88-150.91l-285.88-151.54v-85.2Z"/>
      <path class="cls-3" d="m669.32,443.31l431.05,233.92v5.34s-431.05,232.97-431.05,232.97v-84.57s285.88-150.91,285.88-150.91l-285.88-151.54v-85.2Z"/>
      <path class="cls-3" d="m668.34,442.33l431.05,233.92v5.34s-431.05,232.97-431.05,232.97v-84.57s285.88-150.91,285.88-150.91l-285.88-151.54v-85.2Z"/>
      <path class="cls-3" d="m667.36,441.35l431.05,233.92v5.34s-431.05,232.97-431.05,232.97v-84.57s285.88-150.91,285.88-150.91l-285.88-151.54v-85.2Z"/>
      <path class="cls-3" d="m666.39,440.38l431.05,233.92v5.34s-431.05,232.97-431.05,232.97v-84.57s285.88-150.91,285.88-150.91l-285.88-151.54v-85.2Z"/>
      <path class="cls-3" d="m665.41,439.4l431.05,233.92v5.34s-431.05,232.97-431.05,232.97v-84.57s285.88-150.91,285.88-150.91l-285.88-151.54v-85.2Z"/>
      <path class="cls-3" d="m664.43,438.42l431.05,233.92v5.34s-431.05,232.97-431.05,232.97v-84.57s285.88-150.91,285.88-150.91l-285.88-151.54v-85.2Z"/>
      <path class="cls-3" d="m663.46,437.44l431.05,233.92v5.34s-431.05,232.97-431.05,232.97v-84.57s285.88-150.91,285.88-150.91l-285.88-151.54v-85.2Z"/>
      <path class="cls-3" d="m662.48,436.47l431.05,233.92v5.34s-431.05,232.97-431.05,232.97v-84.57s285.88-150.91,285.88-150.91l-285.88-151.54v-85.2Z"/>
      <path class="cls-3" d="m661.5,435.49l431.05,233.92v5.34s-431.05,232.97-431.05,232.97v-84.57s285.88-150.91,285.88-150.91l-285.88-151.54v-85.2Z"/>
      <path class="cls-3" d="m660.52,434.51l431.05,233.92v5.34s-431.05,232.97-431.05,232.97v-84.57s285.88-150.91,285.88-150.91l-285.88-151.54v-85.2Z"/>
      <path class="cls-3" d="m659.55,433.53l431.05,233.92v5.34s-431.05,232.97-431.05,232.97v-84.57s285.88-150.91,285.88-150.91l-285.88-151.54v-85.2Z"/>
      <path class="cls-3" d="m658.57,432.56l431.05,233.92v5.34s-431.05,232.97-431.05,232.97v-84.57s285.88-150.91,285.88-150.91l-285.88-151.54v-85.2Z"/>
      <path class="cls-3" d="m657.59,431.58l431.05,233.92v5.34s-431.05,232.97-431.05,232.97v-84.57s285.88-150.91,285.88-150.91l-285.88-151.54v-85.2Z"/>
      <path class="cls-3" d="m656.61,430.6l431.05,233.92v5.34s-431.05,232.97-431.05,232.97v-84.57s285.88-150.91,285.88-150.91l-285.88-151.54v-85.2Z"/>
      <path class="cls-3" d="m655.64,429.62l431.05,233.92v5.34s-431.05,232.97-431.05,232.97v-84.57s285.88-150.91,285.88-150.91l-285.88-151.54v-85.2Z"/>
      <path class="cls-3" d="m654.66,428.65l431.05,233.92v5.34s-431.05,232.97-431.05,232.97v-84.57s285.88-150.91,285.88-150.91l-285.88-151.54v-85.2Z"/>
      <path class="cls-3" d="m653.68,427.67l431.05,233.92v5.34s-431.05,232.97-431.05,232.97v-84.57s285.88-150.91,285.88-150.91l-285.88-151.54v-85.2Z"/>
      <path class="cls-3" d="m652.7,426.69l431.05,233.92v5.34s-431.05,232.97-431.05,232.97v-84.57s285.88-150.91,285.88-150.91l-285.88-151.54v-85.2Z"/>
      <path class="cls-3" d="m651.73,425.72l431.05,233.92v5.34s-431.05,232.97-431.05,232.97v-84.57s285.88-150.91,285.88-150.91l-285.88-151.54v-85.2Z"/>
      <path class="cls-3" d="m650.75,424.74l431.05,233.92v5.34s-431.05,232.97-431.05,232.97v-84.57s285.88-150.91,285.88-150.91l-285.88-151.54v-85.2Z"/>
      <path class="cls-3" d="m649.77,423.76l431.05,233.92v5.34s-431.05,232.97-431.05,232.97v-84.57s285.88-150.91,285.88-150.91l-285.88-151.54v-85.2Z"/>
    </g>
    <g>
      <path class="cls-1" d="m661.5,435.49l431.05,233.92v5.34s-431.05,232.97-431.05,232.97v-84.57s285.88-150.91,285.88-150.91l-285.88-151.54v-85.2Z"/>
      <path class="cls-1" d="m660.52,434.51l431.05,233.92v5.34s-431.05,232.97-431.05,232.97v-84.57s285.88-150.91,285.88-150.91l-285.88-151.54v-85.2Z"/>
      <path class="cls-1" d="m659.55,433.53l431.05,233.92v5.34s-431.05,232.97-431.05,232.97v-84.57s285.88-150.91,285.88-150.91l-285.88-151.54v-85.2Z"/>
      <path class="cls-1" d="m658.57,432.56l431.05,233.92v5.34s-431.05,232.97-431.05,232.97v-84.57s285.88-150.91,285.88-150.91l-285.88-151.54v-85.2Z"/>
      <path class="cls-1" d="m657.59,431.58l431.05,233.92v5.34s-431.05,232.97-431.05,232.97v-84.57s285.88-150.91,285.88-150.91l-285.88-151.54v-85.2Z"/>
      <path class="cls-1" d="m656.61,430.6l431.05,233.92v5.34s-431.05,232.97-431.05,232.97v-84.57s285.88-150.91,285.88-150.91l-285.88-151.54v-85.2Z"/>
      <path class="cls-1" d="m655.64,429.62l431.05,233.92v5.34s-431.05,232.97-431.05,232.97v-84.57s285.88-150.91,285.88-150.91l-285.88-151.54v-85.2Z"/>
      <path class="cls-1" d="m654.66,428.65l431.05,233.92v5.34s-431.05,232.97-431.05,232.97v-84.57s285.88-150.91,285.88-150.91l-285.88-151.54v-85.2Z"/>
      <path class="cls-1" d="m653.68,427.67l431.05,233.92v5.34s-431.05,232.97-431.05,232.97v-84.57s285.88-150.91,285.88-150.91l-285.88-151.54v-85.2Z"/>
      <path class="cls-1" d="m652.7,426.69l431.05,233.92v5.34s-431.05,232.97-431.05,232.97v-84.57s285.88-150.91,285.88-150.91l-285.88-151.54v-85.2Z"/>
      <path class="cls-1" d="m651.73,425.72l431.05,233.92v5.34s-431.05,232.97-431.05,232.97v-84.57s285.88-150.91,285.88-150.91l-285.88-151.54v-85.2Z"/>
      <path class="cls-1" d="m650.75,424.74l431.05,233.92v5.34s-431.05,232.97-431.05,232.97v-84.57s285.88-150.91,285.88-150.91l-285.88-151.54v-85.2Z"/>
      <path class="cls-1" d="m649.77,423.76l431.05,233.92v5.34s-431.05,232.97-431.05,232.97v-84.57s285.88-150.91,285.88-150.91l-285.88-151.54v-85.2Z"/>
    </g>
    <path class="cls-2" d="m649.77,423.76l431.05,233.92v5.34s-431.05,232.97-431.05,232.97v-84.57s285.88-150.91,285.88-150.91l-285.88-151.54v-85.2Z"/>
  </g>
  <g>
    <g>
      <path class="cls-2" d="m215.86,298.85h85.21v469.82h-85.21v-469.82Z"/>
      <path class="cls-2" d="m214.88,297.87h85.21v469.82h-85.21v-469.82Z"/>
      <path class="cls-2" d="m213.9,296.9h85.21v469.82h-85.21v-469.82Z"/>
      <path class="cls-2" d="m212.93,295.92h85.21v469.82h-85.21v-469.82Z"/>
      <path class="cls-2" d="m211.95,294.94h85.21v469.82h-85.21v-469.82Z"/>
      <path class="cls-2" d="m210.97,293.96h85.21v469.82h-85.21v-469.82Z"/>
      <path class="cls-2" d="m210,292.99h85.21v469.82h-85.21v-469.82Z"/>
      <path class="cls-2" d="m209.02,292.01h85.21v469.82h-85.21v-469.82Z"/>
      <path class="cls-2" d="m208.04,291.03h85.21v469.82h-85.21v-469.82Z"/>
      <path class="cls-2" d="m207.06,290.05h85.21v469.82h-85.21v-469.82Z"/>
      <path class="cls-2" d="m206.09,289.08h85.21v469.82h-85.21v-469.82Z"/>
      <path class="cls-2" d="m205.11,288.1h85.21v469.82h-85.21v-469.82Z"/>
      <path class="cls-2" d="m204.13,287.12h85.21v469.82h-85.21v-469.82Z"/>
      <path class="cls-2" d="m203.15,286.15h85.21v469.82h-85.21v-469.82Z"/>
      <path class="cls-2" d="m202.18,285.17h85.21v469.82h-85.21v-469.82Z"/>
      <path class="cls-2" d="m201.2,284.19h85.21v469.82h-85.21v-469.82Z"/>
      <path class="cls-2" d="m200.22,283.21h85.21v469.82h-85.21v-469.82Z"/>
      <path class="cls-2" d="m199.24,282.24h85.21v469.82h-85.21v-469.82Z"/>
      <path class="cls-2" d="m198.27,281.26h85.21v469.82h-85.21v-469.82Z"/>
      <path class="cls-2" d="m197.29,280.28h85.21v469.82h-85.21v-469.82Z"/>
      <path class="cls-2" d="m196.31,279.3h85.21v469.82h-85.21v-469.82Z"/>
      <path class="cls-2" d="m195.34,278.33h85.21v469.82h-85.21v-469.82Z"/>
      <path class="cls-2" d="m194.36,277.35h85.21v469.82h-85.21v-469.82Z"/>
      <path class="cls-2" d="m193.38,276.37h85.21v469.82h-85.21v-469.82Z"/>
      <path class="cls-2" d="m192.4,275.4h85.21v469.82h-85.21v-469.82Z"/>
      <path class="cls-2" d="m191.43,274.42h85.21v469.82h-85.21v-469.82Z"/>
      <path class="cls-2" d="m190.45,273.44h85.21v469.82h-85.21v-469.82Z"/>
      <path class="cls-2" d="m189.47,272.46h85.21v469.82h-85.21v-469.82Z"/>
      <path class="cls-2" d="m188.49,271.49h85.21v469.82h-85.21v-469.82Z"/>
      <path class="cls-2" d="m187.52,270.51h85.21v469.82h-85.21v-469.82Z"/>
      <path class="cls-2" d="m186.54,269.53h85.21v469.82h-85.21v-469.82Z"/>
      <path class="cls-2" d="m185.56,268.55h85.21v469.82h-85.21v-469.82Z"/>
      <path class="cls-2" d="m184.58,267.58h85.21v469.82h-85.21v-469.82Z"/>
      <path class="cls-2" d="m183.61,266.6h85.21v469.82h-85.21v-469.82Z"/>
      <path class="cls-2" d="m182.63,265.62h85.21v469.82h-85.21v-469.82Z"/>
      <path class="cls-2" d="m181.65,264.64h85.21v469.82h-85.21v-469.82Z"/>
      <path class="cls-2" d="m180.68,263.67h85.21v469.82h-85.21v-469.82Z"/>
      <path class="cls-2" d="m179.7,262.69h85.21v469.82h-85.21v-469.82Z"/>
      <path class="cls-2" d="m178.72,261.71h85.21v469.82h-85.21v-469.82Z"/>
      <path class="cls-2" d="m177.74,260.74h85.21v469.82h-85.21v-469.82Z"/>
      <path class="cls-2" d="m176.77,259.76h85.21v469.82h-85.21v-469.82Z"/>
      <path class="cls-2" d="m175.79,258.78h85.21v469.82h-85.21v-469.82Z"/>
      <path class="cls-2" d="m174.81,257.8h85.21v469.82h-85.21v-469.82Z"/>
      <path class="cls-2" d="m173.83,256.83h85.21v469.82h-85.21v-469.82Z"/>
      <path class="cls-2" d="m172.86,255.85h85.21v469.82h-85.21V255.85Z"/>
      <path class="cls-2" d="m171.88,254.87h85.21v469.82h-85.21V254.87Z"/>
      <path class="cls-2" d="m170.9,253.89h85.21v469.82h-85.21V253.89Z"/>
      <path class="cls-2" d="m169.93,252.92h85.21v469.82h-85.21V252.92Z"/>
      <path class="cls-2" d="m168.95,251.94h85.21v469.82h-85.21V251.94Z"/>
    </g>
    <g>
      <path class="cls-4" d="m204.13,287.12h85.21v469.82h-85.21v-469.82Z"/>
      <path class="cls-4" d="m203.15,286.15h85.21v469.82h-85.21v-469.82Z"/>
      <path class="cls-4" d="m202.18,285.17h85.21v469.82h-85.21v-469.82Z"/>
      <path class="cls-4" d="m201.2,284.19h85.21v469.82h-85.21v-469.82Z"/>
      <path class="cls-4" d="m200.22,283.21h85.21v469.82h-85.21v-469.82Z"/>
      <path class="cls-4" d="m199.24,282.24h85.21v469.82h-85.21v-469.82Z"/>
      <path class="cls-4" d="m198.27,281.26h85.21v469.82h-85.21v-469.82Z"/>
      <path class="cls-4" d="m197.29,280.28h85.21v469.82h-85.21v-469.82Z"/>
      <path class="cls-4" d="m196.31,279.3h85.21v469.82h-85.21v-469.82Z"/>
      <path class="cls-4" d="m195.34,278.33h85.21v469.82h-85.21v-469.82Z"/>
      <path class="cls-4" d="m194.36,277.35h85.21v469.82h-85.21v-469.82Z"/>
      <path class="cls-4" d="m193.38,276.37h85.21v469.82h-85.21v-469.82Z"/>
      <path class="cls-4" d="m192.4,275.4h85.21v469.82h-85.21v-469.82Z"/>
      <path class="cls-4" d="m191.43,274.42h85.21v469.82h-85.21v-469.82Z"/>
      <path class="cls-4" d="m190.45,273.44h85.21v469.82h-85.21v-469.82Z"/>
      <path class="cls-4" d="m189.47,272.46h85.21v469.82h-85.21v-469.82Z"/>
      <path class="cls-4" d="m188.49,271.49h85.21v469.82h-85.21v-469.82Z"/>
      <path class="cls-4" d="m187.52,270.51h85.21v469.82h-85.21v-469.82Z"/>
      <path class="cls-4" d="m186.54,269.53h85.21v469.82h-85.21v-469.82Z"/>
      <path class="cls-4" d="m185.56,268.55h85.21v469.82h-85.21v-469.82Z"/>
      <path class="cls-4" d="m184.58,267.58h85.21v469.82h-85.21v-469.82Z"/>
      <path class="cls-4" d="m183.61,266.6h85.21v469.82h-85.21v-469.82Z"/>
      <path class="cls-4" d="m182.63,265.62h85.21v469.82h-85.21v-469.82Z"/>
      <path class="cls-4" d="m181.65,264.64h85.21v469.82h-85.21v-469.82Z"/>
      <path class="cls-4" d="m180.68,263.67h85.21v469.82h-85.21v-469.82Z"/>
      <path class="cls-4" d="m179.7,262.69h85.21v469.82h-85.21v-469.82Z"/>
      <path class="cls-4" d="m178.72,261.71h85.21v469.82h-85.21v-469.82Z"/>
      <path class="cls-4" d="m177.74,260.74h85.21v469.82h-85.21v-469.82Z"/>
      <path class="cls-4" d="m176.77,259.76h85.21v469.82h-85.21v-469.82Z"/>
      <path class="cls-4" d="m175.79,258.78h85.21v469.82h-85.21v-469.82Z"/>
      <path class="cls-4" d="m174.81,257.8h85.21v469.82h-85.21v-469.82Z"/>
      <path class="cls-4" d="m173.83,256.83h85.21v469.82h-85.21v-469.82Z"/>
      <path class="cls-4" d="m172.86,255.85h85.21v469.82h-85.21V255.85Z"/>
      <path class="cls-4" d="m171.88,254.87h85.21v469.82h-85.21V254.87Z"/>
      <path class="cls-4" d="m170.9,253.89h85.21v469.82h-85.21V253.89Z"/>
      <path class="cls-4" d="m169.93,252.92h85.21v469.82h-85.21V252.92Z"/>
      <path class="cls-4" d="m168.95,251.94h85.21v469.82h-85.21V251.94Z"/>
    </g>
    <g>
      <path class="cls-3" d="m192.4,275.4h85.21v469.82h-85.21v-469.82Z"/>
      <path class="cls-3" d="m191.43,274.42h85.21v469.82h-85.21v-469.82Z"/>
      <path class="cls-3" d="m190.45,273.44h85.21v469.82h-85.21v-469.82Z"/>
      <path class="cls-3" d="m189.47,272.46h85.21v469.82h-85.21v-469.82Z"/>
      <path class="cls-3" d="m188.49,271.49h85.21v469.82h-85.21v-469.82Z"/>
      <path class="cls-3" d="m187.52,270.51h85.21v469.82h-85.21v-469.82Z"/>
      <path class="cls-3" d="m186.54,269.53h85.21v469.82h-85.21v-469.82Z"/>
      <path class="cls-3" d="m185.56,268.55h85.21v469.82h-85.21v-469.82Z"/>
      <path class="cls-3" d="m184.58,267.58h85.21v469.82h-85.21v-469.82Z"/>
      <path class="cls-3" d="m183.61,266.6h85.21v469.82h-85.21v-469.82Z"/>
      <path class="cls-3" d="m182.63,265.62h85.21v469.82h-85.21v-469.82Z"/>
      <path class="cls-3" d="m181.65,264.64h85.21v469.82h-85.21v-469.82Z"/>
      <path class="cls-3" d="m180.68,263.67h85.21v469.82h-85.21v-469.82Z"/>
      <path class="cls-3" d="m179.7,262.69h85.21v469.82h-85.21v-469.82Z"/>
      <path class="cls-3" d="m178.72,261.71h85.21v469.82h-85.21v-469.82Z"/>
      <path class="cls-3" d="m177.74,260.74h85.21v469.82h-85.21v-469.82Z"/>
      <path class="cls-3" d="m176.77,259.76h85.21v469.82h-85.21v-469.82Z"/>
      <path class="cls-3" d="m175.79,258.78h85.21v469.82h-85.21v-469.82Z"/>
      <path class="cls-3" d="m174.81,257.8h85.21v469.82h-85.21v-469.82Z"/>
      <path class="cls-3" d="m173.83,256.83h85.21v469.82h-85.21v-469.82Z"/>
      <path class="cls-3" d="m172.86,255.85h85.21v469.82h-85.21V255.85Z"/>
      <path class="cls-3" d="m171.88,254.87h85.21v469.82h-85.21V254.87Z"/>
      <path class="cls-3" d="m170.9,253.89h85.21v469.82h-85.21V253.89Z"/>
      <path class="cls-3" d="m169.93,252.92h85.21v469.82h-85.21V252.92Z"/>
      <path class="cls-3" d="m168.95,251.94h85.21v469.82h-85.21V251.94Z"/>
    </g>
    <g>
      <path class="cls-1" d="m180.68,263.67h85.21v469.82h-85.21v-469.82Z"/>
      <path class="cls-1" d="m179.7,262.69h85.21v469.82h-85.21v-469.82Z"/>
      <path class="cls-1" d="m178.72,261.71h85.21v469.82h-85.21v-469.82Z"/>
      <path class="cls-1" d="m177.74,260.74h85.21v469.82h-85.21v-469.82Z"/>
      <path class="cls-1" d="m176.77,259.76h85.21v469.82h-85.21v-469.82Z"/>
      <path class="cls-1" d="m175.79,258.78h85.21v469.82h-85.21v-469.82Z"/>
      <path class="cls-1" d="m174.81,257.8h85.21v469.82h-85.21v-469.82Z"/>
      <path class="cls-1" d="m173.83,256.83h85.21v469.82h-85.21v-469.82Z"/>
      <path class="cls-1" d="m172.86,255.85h85.21v469.82h-85.21V255.85Z"/>
      <path class="cls-1" d="m171.88,254.87h85.21v469.82h-85.21V254.87Z"/>
      <path class="cls-1" d="m170.9,253.89h85.21v469.82h-85.21V253.89Z"/>
      <path class="cls-1" d="m169.93,252.92h85.21v469.82h-85.21V252.92Z"/>
      <path class="cls-1" d="m168.95,251.94h85.21v469.82h-85.21V251.94Z"/>
    </g>
    <path class="cls-2" d="m168.95,251.94h85.21v469.82h-85.21V251.94Z"/>
  </g>
</svg>